<?xml version="1.0" standalone="no"?>
<!DOCTYPE svg PUBLIC "-//W3C//DTD SVG 20010904//EN"
 "http://www.w3.org/TR/2001/REC-SVG-20010904/DTD/svg10.dtd">
<svg version="1.0" xmlns="http://www.w3.org/2000/svg"
 width="400.000000pt" height="400.000000pt" viewBox="0 0 400.000000 400.000000"
 preserveAspectRatio="xMidYMid meet">
<metadata>
Created by potrace 1.11, written by Peter Selinger 2001-2013
</metadata>
<g transform="translate(0.000000,400.000000) scale(0.100000,-0.100000)"
fill="#000000" stroke="none">
<path d="M133 3989 c-17 -5 -47 -25 -67 -44 -71 -69 -66 91 -66 -1938 0 -1229
3 -1844 10 -1869 14 -49 80 -114 129 -128 27 -7 620 -9 1882 -8 l1844 3 36 22
c20 13 49 42 65 65 l29 43 2 1855 c2 1820 2 1856 -17 1894 -25 50 -74 93 -119
106 -47 13 -3683 12 -3728 -1z"/>
</g>
</svg>
